<svg xmlns="http://www.w3.org/2000/svg" xmlns:xlink="http://www.w3.org/1999/xlink" width="500" zoomAndPan="magnify" viewBox="0 0 375 374.999991" height="500" preserveAspectRatio="xMidYMid meet" version="1.0"><defs><g/><clipPath id="16d80cd1a8"><path d="M 36.722656 17.203125 L 337.5 17.203125 L 337.5 357.925781 L 36.722656 357.925781 Z M 36.722656 17.203125 " clip-rule="nonzero"/></clipPath><clipPath id="a70698bbf9"><path d="M 204.613281 22.6875 L 319.996094 89.816406 C 330.832031 96.121094 337.5 107.714844 337.5 120.25 L 337.5 254.75 C 337.5 267.285156 330.832031 278.878906 319.996094 285.183594 L 204.613281 352.3125 C 193.792969 358.609375 180.429688 358.609375 169.609375 352.3125 L 54.226562 285.183594 C 43.390625 278.878906 36.722656 267.285156 36.722656 254.75 L 36.722656 120.25 C 36.722656 107.714844 43.390625 96.121094 54.226562 89.816406 L 169.609375 22.6875 C 180.429688 16.390625 193.792969 16.390625 204.613281 22.6875 Z M 204.613281 22.6875 " clip-rule="nonzero"/></clipPath><clipPath id="280aff3dcb"><path d="M 36.722656 17 L 337.472656 17 L 337.472656 358 L 36.722656 358 Z M 36.722656 17 " clip-rule="nonzero"/></clipPath><clipPath id="7d8e94bb2b"><path d="M 204.613281 22.6875 L 319.992188 89.816406 C 330.828125 96.121094 337.496094 107.714844 337.496094 120.25 L 337.496094 254.746094 C 337.496094 267.28125 330.828125 278.875 319.992188 285.179688 L 204.613281 352.308594 C 193.792969 358.605469 180.425781 358.605469 169.605469 352.308594 L 54.226562 285.179688 C 43.390625 278.875 36.722656 267.28125 36.722656 254.746094 L 36.722656 120.25 C 36.722656 107.714844 43.390625 96.121094 54.226562 89.816406 L 169.605469 22.6875 C 180.425781 16.390625 193.792969 16.390625 204.613281 22.6875 Z M 204.613281 22.6875 " clip-rule="nonzero"/></clipPath><clipPath id="132e36246e"><path d="M 47.5 29 L 325.414062 29 L 325.414062 344.207031 L 47.5 344.207031 Z M 47.5 29 " clip-rule="nonzero"/></clipPath><clipPath id="4498286aab"><path d="M 200.070312 32.960938 L 311.796875 97.96875 C 320.226562 102.871094 325.414062 111.886719 325.414062 121.640625 L 325.414062 251.835938 C 325.414062 261.585938 320.226562 270.601562 311.796875 275.503906 L 200.070312 340.511719 C 191.652344 345.40625 181.257812 345.40625 172.839844 340.511719 L 61.113281 275.503906 C 52.683594 270.601562 47.5 261.585938 47.5 251.835938 L 47.5 121.640625 C 47.5 111.886719 52.683594 102.871094 61.113281 97.96875 L 172.839844 32.960938 C 181.257812 28.066406 191.652344 28.066406 200.070312 32.960938 Z M 200.070312 32.960938 " clip-rule="nonzero"/></clipPath><clipPath id="2e51849998"><path d="M 47.5 29 L 325.410156 29 L 325.410156 345 L 47.5 345 Z M 47.5 29 " clip-rule="nonzero"/></clipPath><clipPath id="17126dd322"><path d="M 200.066406 32.964844 L 311.796875 97.96875 C 320.222656 102.875 325.410156 111.890625 325.410156 121.640625 L 325.410156 251.832031 C 325.410156 261.585938 320.222656 270.601562 311.796875 275.503906 L 200.066406 340.507812 C 191.652344 345.40625 181.253906 345.40625 172.839844 340.507812 L 61.113281 275.503906 C 52.683594 270.601562 47.5 261.585938 47.5 251.832031 L 47.5 121.640625 C 47.5 111.890625 52.683594 102.875 61.113281 97.96875 L 172.839844 32.964844 C 181.253906 28.066406 191.652344 28.066406 200.066406 32.964844 Z M 200.066406 32.964844 " clip-rule="nonzero"/></clipPath><clipPath id="e603f01320"><path d="M 155 149 L 220 149 L 220 240.679688 L 155 240.679688 Z M 155 149 " clip-rule="nonzero"/></clipPath><clipPath id="5d71b1a69a"><path d="M 178 236 L 196 236 L 196 240.679688 L 178 240.679688 Z M 178 236 " clip-rule="nonzero"/></clipPath></defs><g clip-path="url(#16d80cd1a8)"><g clip-path="url(#a70698bbf9)"><path fill="#ffffff" d="M 36.722656 12.503906 L 337.5 12.503906 L 337.5 362.625 L 36.722656 362.625 Z M 36.722656 12.503906 " fill-opacity="1" fill-rule="nonzero"/></g></g><g clip-path="url(#280aff3dcb)"><g clip-path="url(#7d8e94bb2b)"><path stroke-linecap="butt" transform="matrix(0.75, 0, 0, 0.75, 36.722272, 12.502686)" fill="none" stroke-linejoin="miter" d="M 223.854707 13.579754 L 377.693269 103.084974 C 392.141188 111.491225 401.031814 126.94956 401.031814 143.663104 L 401.031814 322.991252 C 401.031814 339.704796 392.141188 355.163132 377.693269 363.569383 L 223.854707 453.074603 C 209.427622 461.470437 191.604703 461.470437 177.177618 453.074603 L 23.339056 363.569383 C 8.891138 355.163132 0.000511682 339.704796 0.000511682 322.991252 L 0.000511682 143.663104 C 0.000511682 126.94956 8.891138 111.491225 23.339056 103.084974 L 177.177618 13.579754 C 191.604703 5.183919 209.427622 5.183919 223.854707 13.579754 Z M 223.854707 13.579754 " stroke="#292929" stroke-width="12" stroke-opacity="1" stroke-miterlimit="4"/></g></g><g clip-path="url(#132e36246e)"><g clip-path="url(#4498286aab)"><path fill="#ffd600" d="M 47.5 25.042969 L 325.414062 25.042969 L 325.414062 348.550781 L 47.5 348.550781 Z M 47.5 25.042969 " fill-opacity="1" fill-rule="nonzero"/></g></g><g clip-path="url(#2e51849998)"><g clip-path="url(#17126dd322)"><path fill="#292929" d="M 209.898438 36.949219 L 217.675781 41.472656 L 216.167969 44.066406 L 208.386719 39.539062 Z M 218.972656 42.226562 L 226.75 46.753906 L 225.242188 49.347656 L 217.464844 44.820312 Z M 228.046875 47.507812 L 235.828125 52.035156 L 234.320312 54.628906 L 226.539062 50.101562 Z M 237.125 52.789062 L 244.902344 57.316406 L 243.394531 59.90625 L 235.613281 55.382812 Z M 246.199219 58.070312 L 253.976562 62.59375 L 252.46875 65.1875 L 244.691406 60.664062 Z M 255.273438 63.351562 L 263.054688 67.875 L 261.546875 70.46875 L 253.765625 65.941406 Z M 264.351562 68.628906 L 272.128906 73.15625 L 270.621094 75.75 L 262.84375 71.222656 Z M 273.425781 73.910156 L 281.207031 78.4375 L 279.695312 81.03125 L 271.917969 76.503906 Z M 282.503906 79.191406 L 290.28125 83.71875 L 288.773438 86.308594 L 280.992188 81.785156 Z M 291.578125 84.472656 L 299.355469 88.996094 L 297.847656 91.589844 L 290.070312 87.0625 Z M 300.652344 89.75 L 308.433594 94.277344 L 306.921875 96.871094 L 299.144531 92.34375 Z M 309.730469 95.03125 L 312.550781 96.671875 C 314.308594 97.699219 315.941406 98.894531 317.449219 100.261719 L 315.429688 102.480469 C 314.082031 101.257812 312.617188 100.183594 311.039062 99.265625 L 308.21875 97.625 Z M 318.582031 101.347656 C 320.828125 103.625 322.648438 106.207031 324.039062 109.089844 L 321.339844 110.394531 C 320.089844 107.808594 318.460938 105.496094 316.445312 103.457031 Z M 324.6875 110.535156 C 325.917969 113.488281 326.636719 116.558594 326.847656 119.75 L 323.851562 119.945312 C 323.667969 117.085938 323.023438 114.335938 321.917969 111.6875 Z M 326.90625 121.359375 L 326.910156 121.632812 L 326.910156 130.371094 L 323.910156 130.371094 L 323.910156 121.648438 L 323.90625 121.375 Z M 326.910156 131.871094 L 326.910156 140.871094 L 323.910156 140.871094 L 323.910156 131.871094 Z M 326.910156 142.371094 L 326.910156 151.371094 L 323.910156 151.371094 L 323.910156 142.371094 Z M 326.910156 152.871094 L 326.910156 161.871094 L 323.910156 161.871094 L 323.910156 152.871094 Z M 326.910156 163.371094 L 326.910156 172.371094 L 323.910156 172.371094 L 323.910156 163.371094 Z M 326.910156 173.871094 L 326.910156 182.871094 L 323.910156 182.871094 L 323.910156 173.871094 Z M 326.910156 184.371094 L 326.910156 193.371094 L 323.910156 193.371094 L 323.910156 184.371094 Z M 326.910156 194.871094 L 326.910156 203.871094 L 323.910156 203.871094 L 323.910156 194.871094 Z M 326.910156 205.371094 L 326.910156 214.371094 L 323.910156 214.371094 L 323.910156 205.371094 Z M 326.910156 215.871094 L 326.910156 224.871094 L 323.910156 224.871094 L 323.910156 215.871094 Z M 326.910156 226.371094 L 326.910156 235.371094 L 323.910156 235.371094 L 323.910156 226.371094 Z M 326.910156 236.871094 L 326.910156 245.871094 L 323.910156 245.871094 L 323.910156 236.871094 Z M 326.910156 247.371094 L 326.910156 251.832031 C 326.910156 253.445312 326.773438 255.046875 326.507812 256.632812 L 323.550781 256.136719 C 323.789062 254.710938 323.910156 253.277344 323.910156 251.832031 L 323.910156 247.371094 Z M 326.203125 258.179688 C 325.5 261.296875 324.3125 264.21875 322.640625 266.945312 L 320.082031 265.375 C 321.582031 262.933594 322.648438 260.316406 323.277344 257.519531 Z M 321.773438 268.273438 C 319.957031 270.902344 317.761719 273.164062 315.191406 275.0625 L 313.410156 272.652344 C 315.710938 270.949219 317.675781 268.921875 319.308594 266.566406 Z M 313.882812 275.976562 C 313.445312 276.261719 313.003906 276.535156 312.550781 276.800781 L 306.039062 280.589844 L 304.53125 277.996094 L 311.039062 274.207031 C 311.445312 273.972656 311.84375 273.722656 312.238281 273.46875 Z M 304.742188 281.34375 L 296.964844 285.867188 L 295.453125 283.277344 L 303.234375 278.75 Z M 295.667969 286.625 L 287.886719 291.148438 L 286.378906 288.554688 L 294.15625 284.03125 Z M 286.589844 291.902344 L 278.8125 296.429688 L 277.304688 293.835938 L 285.082031 289.308594 Z M 277.515625 297.183594 L 269.734375 301.710938 L 268.226562 299.117188 L 276.007812 294.589844 Z M 268.441406 302.464844 L 260.660156 306.992188 L 259.152344 304.398438 L 266.929688 299.871094 Z M 259.363281 307.746094 L 251.585938 312.269531 L 250.074219 309.675781 L 257.855469 305.152344 Z M 250.289062 313.023438 L 242.507812 317.550781 L 241 314.957031 L 248.78125 310.433594 Z M 241.210938 318.304688 L 233.433594 322.832031 L 231.925781 320.238281 L 239.703125 315.710938 Z M 232.136719 323.585938 L 224.359375 328.113281 L 222.847656 325.519531 L 230.628906 320.992188 Z M 223.0625 328.867188 L 215.28125 333.390625 L 213.773438 330.800781 L 221.550781 326.273438 Z M 213.984375 334.148438 L 206.207031 338.671875 L 204.699219 336.078125 L 212.476562 331.554688 Z M 204.910156 339.425781 L 200.820312 341.804688 C 199.507812 342.570312 198.144531 343.222656 196.730469 343.769531 L 195.652344 340.972656 C 196.917969 340.484375 198.136719 339.898438 199.3125 339.214844 L 203.402344 336.832031 Z M 195.242188 344.296875 C 192.199219 345.28125 189.078125 345.742188 185.878906 345.675781 L 185.9375 342.675781 C 188.800781 342.734375 191.597656 342.324219 194.320312 341.441406 Z M 184.296875 345.601562 C 181.105469 345.359375 178.042969 344.601562 175.109375 343.332031 L 176.300781 340.578125 C 178.925781 341.714844 181.664062 342.390625 184.519531 342.609375 Z M 173.664062 342.660156 C 173.128906 342.390625 172.601562 342.105469 172.085938 341.804688 L 165.757812 338.125 L 167.265625 335.53125 L 173.59375 339.214844 C 174.058594 339.484375 174.527344 339.738281 175.007812 339.976562 Z M 164.460938 337.367188 L 156.679688 332.84375 L 158.1875 330.25 L 165.96875 334.777344 Z M 155.382812 332.089844 L 147.605469 327.5625 L 149.113281 324.96875 L 156.894531 329.496094 Z M 146.308594 326.808594 L 138.53125 322.28125 L 140.039062 319.6875 L 147.816406 324.214844 Z M 137.234375 321.527344 L 129.453125 317 L 130.960938 314.410156 L 138.742188 318.933594 Z M 128.15625 316.246094 L 120.378906 311.722656 L 121.886719 309.128906 L 129.664062 313.65625 Z M 119.082031 310.96875 L 111.300781 306.441406 L 112.8125 303.847656 L 120.589844 308.375 Z M 110.003906 305.6875 L 102.226562 301.160156 L 103.734375 298.566406 L 111.515625 303.09375 Z M 100.929688 300.40625 L 93.152344 295.878906 L 94.660156 293.289062 L 102.4375 297.8125 Z M 91.855469 295.125 L 84.074219 290.601562 L 85.585938 288.007812 L 93.363281 292.53125 Z M 82.777344 289.84375 L 75 285.320312 L 76.507812 282.726562 L 84.289062 287.253906 Z M 73.703125 284.566406 L 65.925781 280.039062 L 67.433594 277.445312 L 75.210938 281.972656 Z M 64.628906 279.285156 L 60.355469 276.800781 C 59.109375 276.074219 57.925781 275.261719 56.800781 274.359375 L 58.679688 272.019531 C 59.683594 272.828125 60.746094 273.558594 61.867188 274.207031 L 66.136719 276.691406 Z M 55.597656 273.335938 C 53.21875 271.203125 51.246094 268.742188 49.683594 265.953125 L 52.300781 264.484375 C 53.703125 266.988281 55.46875 269.191406 57.601562 271.105469 Z M 48.949219 264.550781 C 47.539062 261.679688 46.636719 258.660156 46.230469 255.492188 L 49.207031 255.113281 C 49.570312 257.953125 50.378906 260.65625 51.640625 263.230469 Z M 46.074219 253.910156 C 46.023438 253.21875 46 252.527344 46 251.832031 L 46 244.777344 L 49 244.777344 L 49 251.832031 C 49 252.457031 49.019531 253.074219 49.066406 253.695312 Z M 46 243.277344 L 46 234.277344 L 49 234.277344 L 49 243.277344 Z M 46 232.777344 L 46 223.777344 L 49 223.777344 L 49 232.777344 Z M 46 222.277344 L 46 213.277344 L 49 213.277344 L 49 222.277344 Z M 46 211.777344 L 46 202.777344 L 49 202.777344 L 49 211.777344 Z M 46 201.277344 L 46 192.277344 L 49 192.277344 L 49 201.277344 Z M 46 190.777344 L 46 181.777344 L 49 181.777344 L 49 190.777344 Z M 46 180.277344 L 46 171.277344 L 49 171.277344 L 49 180.277344 Z M 46 169.777344 L 46 160.777344 L 49 160.777344 L 49 169.777344 Z M 46 159.277344 L 46 150.277344 L 49 150.277344 L 49 159.277344 Z M 46 148.777344 L 46 139.777344 L 49 139.777344 L 49 148.777344 Z M 46 138.277344 L 46 129.277344 L 49 129.277344 L 49 138.277344 Z M 46 127.777344 L 46 121.640625 C 46 120.621094 46.050781 119.605469 46.160156 118.59375 L 49.140625 118.910156 C 49.046875 119.816406 49 120.726562 49 121.640625 L 49 127.777344 Z M 46.367188 117.023438 C 46.878906 113.871094 47.886719 110.882812 49.386719 108.0625 L 52.035156 109.472656 C 50.6875 112 49.789062 114.679688 49.332031 117.503906 Z M 50.171875 106.6875 C 51.824219 103.953125 53.875 101.558594 56.324219 99.503906 L 58.25 101.804688 C 56.058594 103.644531 54.21875 105.789062 52.738281 108.238281 Z M 57.566406 98.523438 C 58.460938 97.851562 59.390625 97.234375 60.355469 96.671875 L 65.417969 93.730469 L 66.925781 96.320312 L 61.867188 99.265625 C 61 99.769531 60.164062 100.324219 59.363281 100.921875 Z M 66.714844 92.972656 L 74.492188 88.449219 L 76.003906 91.042969 L 68.222656 95.566406 Z M 75.789062 87.695312 L 83.570312 83.167969 L 85.078125 85.761719 L 77.300781 90.285156 Z M 84.867188 82.414062 L 92.644531 77.886719 L 94.152344 80.480469 L 86.375 85.007812 Z M 93.941406 77.132812 L 101.722656 72.605469 L 103.230469 75.199219 L 95.449219 79.726562 Z M 103.019531 71.851562 L 110.796875 67.328125 L 112.304688 69.917969 L 104.527344 74.445312 Z M 112.09375 66.574219 L 119.871094 62.046875 L 121.382812 64.640625 L 113.601562 69.164062 Z M 121.167969 61.292969 L 128.949219 56.765625 L 130.457031 59.359375 L 122.675781 63.886719 Z M 130.246094 56.011719 L 138.023438 51.484375 L 139.53125 54.078125 L 131.753906 58.605469 Z M 139.320312 50.730469 L 147.097656 46.207031 L 148.609375 48.796875 L 140.828125 53.324219 Z M 148.394531 45.449219 L 156.175781 40.925781 L 157.683594 43.519531 L 149.90625 48.042969 Z M 157.472656 40.171875 L 165.25 35.644531 L 166.757812 38.238281 L 158.980469 42.761719 Z M 166.546875 34.890625 L 172.085938 31.667969 C 172.882812 31.203125 173.703125 30.777344 174.542969 30.394531 L 175.792969 33.121094 C 175.042969 33.464844 174.308594 33.84375 173.59375 34.261719 L 168.054688 37.484375 Z M 176.003906 29.773438 C 178.976562 28.601562 182.0625 27.949219 185.257812 27.816406 L 185.386719 30.8125 C 182.523438 30.933594 179.761719 31.515625 177.101562 32.5625 Z M 186.84375 27.792969 C 190.042969 27.839844 193.144531 28.402344 196.152344 29.488281 L 195.132812 32.308594 C 192.441406 31.339844 189.664062 30.832031 186.800781 30.792969 Z M 197.625 30.066406 C 198.722656 30.535156 199.789062 31.066406 200.820312 31.667969 L 208.601562 36.195312 L 207.089844 38.785156 L 199.3125 34.261719 C 198.386719 33.722656 197.433594 33.246094 196.453125 32.828125 Z M 197.625 30.066406 " fill-opacity="1" fill-rule="nonzero"/></g></g><path fill="#292929" d="M 167.363281 120.085938 C 167.363281 130.992188 176.207031 139.832031 187.113281 139.832031 C 198.015625 139.832031 206.859375 130.992188 206.859375 120.085938 C 206.859375 109.179688 198.015625 100.335938 187.113281 100.335938 C 176.207031 100.335938 167.363281 109.179688 167.363281 120.085938 " fill-opacity="1" fill-rule="nonzero"/><path fill="#292929" d="M 165.160156 150.109375 C 165.160156 163.855469 174.992188 174.996094 187.117188 174.996094 C 199.238281 174.996094 209.058594 163.855469 209.058594 150.109375 C 209.058594 136.359375 199.238281 125.21875 187.117188 125.21875 C 174.992188 125.21875 165.160156 136.359375 165.160156 150.109375 " fill-opacity="1" fill-rule="nonzero"/><path fill="#292929" d="M 241.695312 172.367188 C 267.105469 178.976562 276.898438 170.625 280.183594 158.023438 C 283.460938 145.417969 278.992188 133.347656 253.578125 126.734375 C 228.171875 120.109375 204.0625 128.214844 201.625 137.5625 C 199.382812 146.171875 216.285156 165.746094 241.695312 172.367188 " fill-opacity="1" fill-rule="nonzero"/><path fill="#ffd600" d="M 255.84375 152.855469 C 265.246094 152.855469 268.207031 149.949219 269.761719 145.589844 C 270.949219 142.257812 273.421875 135.320312 250.085938 130.882812 C 244.875 129.894531 239.515625 129.390625 234.160156 129.390625 C 220.433594 129.390625 211.957031 132.679688 210.359375 134.222656 C 211.132812 137.40625 222.765625 147.625 242.761719 151.425781 C 247.75 152.375 252.152344 152.855469 255.84375 152.855469 " fill-opacity="1" fill-rule="nonzero"/><path fill="#292929" d="M 260.246094 144.105469 C 262.582031 144.082031 264.933594 143.074219 264.933594 142.148438 C 264.941406 139.59375 261.511719 137.722656 249.324219 135.523438 C 243.746094 134.515625 238.027344 134.03125 232.324219 134.082031 C 229.09375 134.109375 226.214844 134.308594 223.707031 134.601562 C 229.03125 137.628906 236.730469 140.882812 246.890625 142.714844 C 252.105469 143.65625 256.722656 144.136719 260.246094 144.105469 " fill-opacity="1" fill-rule="nonzero"/><g clip-path="url(#e603f01320)"><path fill="#292929" d="M 155.03125 187.914062 C 155.03125 213.972656 177.039062 240.695312 187.292969 240.695312 C 198.175781 240.695312 219.191406 213.972656 219.191406 188.492188 C 219.191406 163.265625 205.316406 149.335938 187.292969 149.335938 C 169.269531 149.335938 155.03125 162.683594 155.03125 187.914062 " fill-opacity="1" fill-rule="nonzero"/></g><path fill="#ffd600" d="M 187.292969 149.335938 C 192.945312 149.335938 198.183594 150.707031 202.71875 153.363281 L 171.570312 153.363281 C 176.207031 150.703125 181.558594 149.335938 187.292969 149.335938 " fill-opacity="1" fill-rule="nonzero"/><path fill="#ffd600" d="M 163.847656 159.855469 L 210.3125 159.855469 C 211.875 161.722656 213.242188 163.847656 214.429688 166.195312 L 159.691406 166.195312 C 160.878906 163.839844 162.269531 161.722656 163.847656 159.855469 " fill-opacity="1" fill-rule="nonzero"/><path fill="#ffd600" d="M 218.460938 179.023438 L 156.960938 179.023438 C 156.519531 179.023438 156.113281 178.929688 155.714844 178.820312 C 156.054688 176.648438 156.546875 174.621094 157.121094 172.6875 L 217.003906 172.6875 C 217.609375 174.683594 218.101562 176.789062 218.460938 179.023438 " fill-opacity="1" fill-rule="nonzero"/><path fill="#ffd600" d="M 219.089844 185.515625 C 219.132812 186.5 219.191406 187.472656 219.191406 188.492188 C 219.191406 189.613281 219.105469 190.734375 219.027344 191.855469 L 156.960938 191.855469 C 156.324219 191.855469 155.746094 191.707031 155.207031 191.492188 C 155.121094 190.300781 155.03125 189.105469 155.03125 187.914062 C 155.03125 187.238281 155.082031 186.601562 155.097656 185.941406 C 155.660156 185.691406 156.273438 185.515625 156.960938 185.515625 L 219.089844 185.515625 " fill-opacity="1" fill-rule="nonzero"/><path fill="#ffd600" d="M 218.199219 198.347656 C 217.789062 200.488281 217.222656 202.597656 216.585938 204.683594 L 157.835938 204.683594 C 157.1875 202.640625 156.621094 200.570312 156.183594 198.472656 C 156.445312 198.429688 156.683594 198.347656 156.960938 198.347656 L 218.199219 198.347656 " fill-opacity="1" fill-rule="nonzero"/><path fill="#ffd600" d="M 211.253906 217.515625 L 163.34375 217.515625 C 162.226562 215.476562 161.179688 213.367188 160.238281 211.175781 L 214.265625 211.175781 C 213.351562 213.367188 212.339844 215.472656 211.253906 217.515625 " fill-opacity="1" fill-rule="nonzero"/><path fill="#ffd600" d="M 202.617188 230.347656 L 172.152344 230.347656 C 170.488281 228.429688 168.84375 226.316406 167.273438 224.007812 L 207.410156 224.007812 C 205.871094 226.316406 204.257812 228.429688 202.617188 230.347656 " fill-opacity="1" fill-rule="nonzero"/><g clip-path="url(#5d71b1a69a)"><path fill="#ffd600" d="M 187.292969 240.695312 C 184.96875 240.695312 182.027344 239.265625 178.886719 236.839844 L 195.917969 236.839844 C 192.765625 239.265625 189.765625 240.695312 187.292969 240.695312 " fill-opacity="1" fill-rule="nonzero"/></g><path fill="#292929" d="M 132.527344 172.367188 C 107.121094 178.976562 97.328125 170.625 94.046875 158.023438 C 90.765625 145.421875 95.238281 133.347656 120.648438 126.730469 C 146.058594 120.109375 170.164062 128.214844 172.605469 137.5625 C 174.847656 146.175781 157.945312 165.746094 132.527344 172.367188 " fill-opacity="1" fill-rule="nonzero"/><path fill="#292929" d="M 176.601562 130.1875 C 174.753906 131.878906 172.675781 131.460938 172.085938 129.9375 C 171.484375 128.398438 172.132812 126.460938 173.421875 125.113281 C 179.421875 119.488281 180.742188 108.367188 176.386719 100.105469 C 172.375 91.667969 162.683594 86.089844 154.605469 87.519531 C 152.761719 87.746094 150.824219 87.101562 149.953125 85.699219 C 149.082031 84.316406 149.988281 82.40625 152.441406 81.9375 C 162.699219 79.425781 175.980469 86.527344 181.222656 97.671875 C 187.011719 108.539062 184.773438 123.449219 176.601562 130.1875 " fill-opacity="1" fill-rule="nonzero"/><path fill="#292929" d="M 197.621094 130.1875 C 199.46875 131.878906 201.546875 131.460938 202.136719 129.9375 C 202.738281 128.398438 202.089844 126.460938 200.800781 125.113281 C 194.800781 119.488281 193.476562 108.367188 197.835938 100.105469 C 201.847656 91.667969 211.539062 86.089844 219.617188 87.519531 C 221.460938 87.746094 223.398438 87.101562 224.273438 85.699219 C 225.140625 84.316406 224.234375 82.40625 221.78125 81.9375 C 211.519531 79.425781 198.242188 86.527344 193 97.671875 C 187.207031 108.539062 189.449219 123.449219 197.621094 130.1875 " fill-opacity="1" fill-rule="nonzero"/><path fill="#ffd600" d="M 118.378906 152.855469 C 108.980469 152.855469 106.019531 149.953125 104.460938 145.589844 C 103.273438 142.257812 100.800781 135.320312 124.136719 130.886719 C 129.347656 129.894531 134.707031 129.390625 140.0625 129.390625 C 153.792969 129.390625 162.265625 132.683594 163.863281 134.222656 C 163.085938 137.40625 151.457031 147.625 131.460938 151.425781 C 126.472656 152.375 122.070312 152.855469 118.378906 152.855469 " fill-opacity="1" fill-rule="nonzero"/><path fill="#292929" d="M 113.976562 144.105469 C 111.640625 144.082031 109.289062 143.074219 109.289062 142.148438 C 109.28125 139.59375 112.710938 137.722656 124.898438 135.523438 C 130.476562 134.515625 136.195312 134.03125 141.898438 134.082031 C 145.128906 134.109375 148.007812 134.308594 150.515625 134.601562 C 145.1875 137.628906 137.492188 140.882812 127.335938 142.714844 C 122.117188 143.65625 117.5 144.136719 113.976562 144.105469 " fill-opacity="1" fill-rule="nonzero"/><path fill="#292929" d="M 167.429688 109.214844 C 165.378906 113.53125 166.191406 118.207031 169.246094 119.65625 C 172.296875 121.105469 176.433594 118.78125 178.484375 114.46875 C 180.535156 110.152344 179.722656 105.480469 176.667969 104.03125 C 173.613281 102.578125 169.480469 104.902344 167.429688 109.214844 " fill-opacity="1" fill-rule="nonzero"/><path fill="#ffd600" d="M 170.015625 107.679688 C 168.929688 109.976562 169.367188 112.460938 170.996094 113.226562 C 172.621094 113.992188 174.816406 112.753906 175.898438 110.457031 C 176.984375 108.160156 176.546875 105.675781 174.917969 104.90625 C 173.296875 104.140625 171.097656 105.382812 170.015625 107.679688 " fill-opacity="1" fill-rule="nonzero"/><path fill="#292929" d="M 206.792969 109.214844 C 208.84375 113.53125 208.03125 118.207031 204.976562 119.65625 C 201.921875 121.105469 197.785156 118.78125 195.738281 114.46875 C 193.6875 110.152344 194.5 105.480469 197.554688 104.03125 C 200.605469 102.578125 204.742188 104.902344 206.792969 109.214844 " fill-opacity="1" fill-rule="nonzero"/><path fill="#ffd600" d="M 204.207031 107.679688 C 205.292969 109.976562 204.855469 112.460938 203.226562 113.226562 C 201.601562 113.992188 199.40625 112.753906 198.320312 110.457031 C 197.238281 108.160156 197.675781 105.675781 199.300781 104.90625 C 200.925781 104.140625 203.125 105.382812 204.207031 107.679688 " fill-opacity="1" fill-rule="nonzero"/><g fill="#292929" fill-opacity="1"><g transform="translate(146.77773, 295.639061)"><g><path d="M 10.765625 -15.140625 L 7.984375 1.34375 L 1.921875 0.328125 L 6.40625 -26.234375 L 12.46875 -25.21875 L 20.25 -6.9375 L 20.3125 -6.9375 L 23.09375 -23.421875 L 29.15625 -22.390625 L 24.671875 4.171875 L 18.609375 3.140625 L 10.828125 -15.125 Z M 10.765625 -15.140625 "/></g></g></g><g fill="#292929" fill-opacity="1"><g transform="translate(180.571733, 300.164923)"><g><path d="M 1.875 -11.96875 L 12.390625 -12.03125 L 12.421875 -7.03125 L 1.90625 -6.96875 Z M 1.875 -11.96875 "/></g></g></g><g fill="#292929" fill-opacity="1"><g transform="translate(202.134676, 299.857778)"><g><path d="M 6.09375 -12.0625 L 7.96875 -1.40625 L 1.921875 -0.34375 L -2.75 -26.875 L 3.296875 -27.9375 L 5.15625 -17.359375 L 13.71875 -18.859375 L 11.859375 -29.4375 L 17.90625 -30.5 L 22.578125 -3.96875 L 16.53125 -2.90625 L 14.65625 -13.5625 Z M 6.09375 -12.0625 "/></g></g></g></svg>